<svg width="553" height="113" viewBox="0 0 553 113" fill="none" xmlns="http://www.w3.org/2000/svg">
<path d="M282.645 2.7334C267.85 4.5492 260.785 6.79645 261.378 24.0001V89.2667C261.442 105.198 264.189 111.717 282.645 111.267H325.912V89.2667H303.178C286.682 90.8224 282.026 86.0557 282.645 66.5334V45.2667C281.698 29.9412 286.029 25.1582 303.178 24.0001H325.912V2.7334H282.645Z" fill="white"/>
<path fill-rule="evenodd" clip-rule="evenodd" d="M342.778 68V90C342.907 107.065 348.018 111.57 364.778 112H386.778L394.845 103.2L400.712 112H421.245L410.245 97.3333V24C408.119 9.32722 403.78 3.82029 386.778 2H364.778V24C378.305 22.8336 384.558 23.6498 386.778 35V45.2667H364.778C345.961 47.1247 342.375 52.9468 342.778 68ZM386.778 68H364.778V90H386.778V68Z" fill="white"/>
<path d="M445.445 2H453.511C457.156 2 460.111 4.95492 460.111 8.6V23.2667H463.778C467.423 23.2667 470.378 26.2216 470.378 29.8667V39.4C470.378 43.0451 467.423 46 463.778 46H460.111V67.2667C460.519 82.1826 462.349 91.5333 466.57 98.3665C469.362 102.885 466.823 111.267 461.512 111.267C460.595 111.267 459.688 111.023 458.907 110.544C443.627 101.168 439.868 90.7671 438.845 67.2667V46H433.711C430.066 46 427.111 43.0451 427.111 39.4V29.8667C427.111 26.2216 430.066 23.2667 433.711 23.2667H438.845V8.59999C438.845 4.95492 441.8 2 445.445 2Z" fill="white"/>
<path fill-rule="evenodd" clip-rule="evenodd" d="M508.511 111.267C493.187 111.231 488.406 106.905 487.245 90.7333V24C485.533 4.33106 492.98 2.60003 508.511 2H530.511C548.55 3.03609 554.081 7.27835 552.511 24V45.2667C552.878 63.1258 548.207 68.251 530.511 68H508.511C509.122 89.9587 514.621 93.8224 530.511 90.7333H552.511V111.267H508.511ZM530.511 24H508.511V45.2667H530.511V24Z" fill="white"/>
<path d="M177.045 89.2667V2.7334H199.045V67.2667L199.047 67.2877C200.405 80.5619 201.319 89.4992 211.512 89.2667C219.369 89.0875 221.576 84.8109 220.312 67.2667V2.7334H243.045V89.2667C242.281 108.866 235.67 112.227 220.312 110.533H199.045C182.726 109.994 177.271 105.962 177.045 89.2667Z" fill="white"/>
<path d="M0 23.3911C2.10799 7.23993 6.87764 1.97714 24.5049 2.22772H61.2624C64.9534 2.22772 67.9455 5.21988 67.9455 8.91089V16.7079C67.9455 20.3989 64.9534 23.3911 61.2624 23.3911H44.5545C29.4006 24.9472 23.6731 28.5204 24.5049 45.6683H61.2624C64.9534 45.6683 67.9455 48.6605 67.9455 52.3515V63.4901C67.9455 67.1811 64.9534 70.1733 61.2624 70.1733H24.5049C23.8536 86.9378 29.7194 90.0923 44.5545 91.3366H61.2624C64.9534 91.3366 67.9455 94.3288 67.9455 98.0198V105.817C67.9455 109.508 64.9534 112.5 61.2624 112.5H26.9914C25.3875 112.5 23.837 111.923 22.6231 110.875L2.31492 93.3359C0.844959 92.0664 0 90.2202 0 88.2779V23.3911Z" fill="white"/>
<path fill-rule="evenodd" clip-rule="evenodd" d="M130.838 111.386H111.015C99.1318 110.96 94.0977 106.555 89.0244 90.0538C88.8337 89.4333 88.7378 88.7791 88.7378 88.13V69.6152C88.7378 68.7576 88.9006 67.9048 89.2331 67.1143C93.3891 57.2344 97.7699 52.2393 109.705 46.6428C110.565 46.2396 111.506 46.0396 112.456 46.0396H126.609C130.3 46.0396 133.292 43.0474 133.292 39.3564V6.68317C133.292 2.99216 136.284 0 139.975 0H149.629C153.32 0 156.312 2.99216 156.312 6.68317V87.2578C156.312 88.469 156.641 89.6576 157.264 90.6962L163.605 101.264C166.278 105.719 163.069 111.386 157.875 111.386H149.38C147.467 111.386 145.916 109.835 145.916 107.923C145.916 104.94 142.397 103.352 140.161 105.326L135.132 109.763C133.947 110.809 132.42 111.386 130.838 111.386ZM133.292 82.4257C133.292 86.1167 130.3 89.1089 126.609 89.1089H122.685C122.331 89.1089 121.977 89.1392 121.627 89.1875C115.837 89.9854 113.33 88.051 111.356 80.1574C111.119 79.2115 111.114 78.2162 111.356 77.2715C113.052 70.6231 115.557 68.5328 122.154 68.3168H126.609C130.3 68.3168 133.292 71.309 133.292 75V82.4257Z" fill="white"/>
</svg>
